<svg id="Capa_1" enable-background="new 0 0 513.151 513.151" height="512" viewBox="0 0 513.151 513.151" width="512" xmlns="http://www.w3.org/2000/svg"><g><g><path d="m463.489 151.329c23.286 0 42.163 18.877 42.163 42.163v174.169c0 23.286-18.877 42.163-42.163 42.163h-20.298l-24.906 31.128c-4.514 5.642-12.948 6.062-18 .896l-31.317-32.024h-164.83c-23.286 0-42.163-18.877-42.163-42.163v-216.332z" fill="#ade194"/><g><path d="m161.974 151.329v216.332c0 23.286 18.877 42.163 42.163 42.163h51.134c-7.38-7.594-11.932-17.951-11.932-29.376 0-16.165 13.104-29.269 29.269-29.269h75.407c37.093 0 67.163-30.07 67.163-67.163v-132.687z" fill="#97da7b"/><path d="m348.015 67.684h-298.352c-23.286 0-42.163 18.876-42.163 42.162v174.169c0 23.286 18.877 42.163 42.163 42.163h20.297l24.906 31.128c4.514 5.642 12.948 6.062 18 .896l31.317-32.024h203.83c23.286 0 42.163-18.877 42.163-42.163v-174.169c.001-23.286-18.876-42.162-42.161-42.162z" fill="#dff6fd"/><path d="m99.048 284.016v-174.17c0-23.286 18.877-42.163 42.163-42.163h-91.548c-23.286.001-42.163 18.877-42.163 42.163v174.169c0 23.286 18.877 42.163 42.163 42.163h20.297l24.906 31.128c4.514 5.642 12.948 6.062 18 .896l31.317-32.024h-2.974c-23.285 0-42.161-18.876-42.161-42.162z" fill="#c8effe"/><g fill="#99e6fc"><circle cx="198.839" cy="200.698" r="17.995"/><circle cx="89.297" cy="200.698" r="17.995"/><circle cx="308.381" cy="200.698" r="17.995"/></g></g></g><g><path d="m228.541 326.178c0-4.142-3.358-7.5-7.5-7.5h-76.856c-2.018 0-3.951.813-5.362 2.256l-31.316 32.023c-1.243 1.27-2.709 1.395-3.467 1.359-.762-.038-2.205-.309-3.315-1.696l-24.907-31.128c-1.423-1.779-3.578-2.814-5.856-2.814h-20.299c-19.113 0-34.663-15.549-34.663-34.662v-174.17c0-19.113 15.55-34.663 34.663-34.663h298.352c19.113 0 34.663 15.549 34.663 34.663v174.169c0 19.113-15.55 34.663-34.663 34.663h-95.011c-4.142 0-7.5 3.358-7.5 7.5s3.358 7.5 7.5 7.5h95.011c27.384 0 49.663-22.278 49.663-49.663v-174.169c0-27.384-22.278-49.663-49.663-49.663h-298.352c-27.384.001-49.663 22.279-49.663 49.663v174.169c0 27.384 22.279 49.663 49.663 49.663h16.693l22.655 28.314c3.493 4.365 8.698 7.028 14.282 7.306.324.016.647.024.97.024 5.24 0 10.285-2.111 13.967-5.876l29.11-29.768h73.701c4.142 0 7.5-3.358 7.5-7.5z"/><path d="m505.651 230.556c-4.142 0-7.5 3.358-7.5 7.5v129.605c0 19.113-15.549 34.663-34.662 34.663h-20.298c-2.278 0-4.433 1.036-5.856 2.814l-24.906 31.128c-1.11 1.388-2.554 1.658-3.315 1.696-.767.036-2.226-.089-3.467-1.358l-31.317-32.024c-1.411-1.443-3.344-2.256-5.362-2.256h-164.831c-19.113 0-34.663-15.55-34.663-34.663v-11.482c0-4.142-3.358-7.5-7.5-7.5s-7.5 3.358-7.5 7.5v11.482c0 27.384 22.279 49.663 49.663 49.663h161.675l29.11 29.768c3.682 3.766 8.727 5.877 13.967 5.876.322 0 .646-.008.969-.024 5.584-.278 10.79-2.94 14.283-7.306l22.654-28.314h16.693c27.384 0 49.662-22.279 49.662-49.663v-129.605c.001-4.142-3.357-7.5-7.499-7.5z"/><path d="m463.489 143.829h-43.312c-4.142 0-7.5 3.358-7.5 7.5s3.358 7.5 7.5 7.5h43.312c19.113 0 34.662 15.55 34.662 34.663v12.603c0 4.142 3.358 7.5 7.5 7.5s7.5-3.358 7.5-7.5v-12.603c0-27.385-22.278-49.663-49.662-49.663z"/><path d="m173.344 200.698c0 14.058 11.437 25.495 25.495 25.495s25.495-11.437 25.495-25.495-11.437-25.495-25.495-25.495-25.495 11.438-25.495 25.495zm35.989 0c0 5.787-4.708 10.495-10.495 10.495s-10.495-4.708-10.495-10.495 4.708-10.495 10.495-10.495 10.495 4.709 10.495 10.495z"/><path d="m63.802 200.698c0 14.058 11.437 25.495 25.495 25.495s25.494-11.437 25.494-25.495-11.437-25.495-25.494-25.495-25.495 11.438-25.495 25.495zm35.989 0c0 5.787-4.708 10.495-10.494 10.495s-10.495-4.708-10.495-10.495 4.708-10.495 10.495-10.495 10.494 4.709 10.494 10.495z"/><path d="m333.875 200.698c0-14.058-11.437-25.495-25.495-25.495s-25.495 11.437-25.495 25.495 11.437 25.495 25.495 25.495 25.495-11.437 25.495-25.495zm-35.989 0c0-5.787 4.708-10.495 10.495-10.495s10.495 4.708 10.495 10.495-4.708 10.495-10.495 10.495-10.495-4.708-10.495-10.495z"/></g></g></svg>