<svg height="480pt" viewBox="0 0 480 480" width="480pt" xmlns="http://www.w3.org/2000/svg"><path d="m216 8h240c8.835938 0 16 7.164062 16 16v320c0 8.835938-7.164062 16-16 16h-240c-8.835938 0-16-7.164062-16-16v-320c0-8.835938 7.164062-16 16-16zm0 0" fill="#ffe477"/><path d="m264 120h-240c-8.824219.027344-15.972656 7.175781-16 16v320c.027344 8.824219 7.175781 15.972656 16 16h240c8.824219-.027344 15.972656-7.175781 16-16v-320c-.027344-8.824219-7.175781-15.972656-16-16zm0 0" fill="#96c8ef"/><path d="m296 136v224h-16v-224c-.027344-8.824219-7.175781-15.972656-16-16h16c8.824219.027344 15.972656 7.175781 16 16zm0 0" fill="#ffd422"/><path d="m440 8v64l-16-32-16 32v-64zm0 0" fill="#ff5023"/><path d="m424 40 8 16-8 16zm0 0" fill="#ffd422"/><path d="m456 8v64l-16-32v-32zm0 0" fill="#ffd422"/><path d="m248 120v64l-16-32-16 32v-64zm0 0" fill="#ff5023"/><path d="m232 152 8 16-8 16zm0 0" fill="#78b9eb"/><path d="m264 120v64l-16-32v-32zm0 0" fill="#78b9eb"/><path d="m32 192h128v16h-128zm0 0"/><path d="m32 160h48v16h-48zm0 0"/><path d="m96 160h48v16h-48zm0 0"/><path d="m32 240h80v16h-80zm0 0"/><path d="m128 240h128v16h-128zm0 0"/><path d="m32 272h128v16h-128zm0 0"/><path d="m176 272h80v16h-80zm0 0"/><path d="m32 304h224v16h-224zm0 0"/><path d="m32 336h80v16h-80zm0 0"/><path d="m128 336h48v16h-48zm0 0"/><path d="m192 336h64v16h-64zm0 0"/><path d="m32 368h64v16h-64zm0 0"/><path d="m112 368h144v16h-144zm0 0"/><path d="m456 0h-240c-13.253906 0-24 10.746094-24 24v88h-168c-13.253906 0-24 10.746094-24 24v320c0 13.253906 10.746094 24 24 24h240c13.253906 0 24-10.746094 24-24v-88h168c13.253906 0 24-10.746094 24-24v-320c0-13.253906-10.746094-24-24-24zm-40 16h16v22.113281l-.800781-1.6875c-1.503907-2.523437-4.222657-4.070312-7.160157-4.070312-2.933593 0-5.65625 1.546875-7.160156 4.070312l-.800781 1.6875zm-192 112h16v22.113281l-.839844-1.6875c-1.503906-2.523437-4.222656-4.070312-7.160156-4.070312s-5.65625 1.546875-7.160156 4.070312l-.839844 1.6875zm48 328c0 4.417969-3.582031 8-8 8h-240c-4.417969 0-8-3.582031-8-8v-320c0-4.417969 3.582031-8 8-8h184v56c-.003906 3.714844 2.550781 6.941406 6.164062 7.792969 3.613282.851562 7.339844-.894531 8.996094-4.21875l8.839844-17.6875 8.800781 17.6875c1.632813 3.375 5.386719 5.160156 9.03125 4.304687 3.648438-.859375 6.210938-4.132812 6.167969-7.878906v-56h8c4.417969 0 8 3.582031 8 8zm192-112c0 4.417969-3.582031 8-8 8h-168v-216c0-13.253906-10.746094-24-24-24h-56v-88c0-4.417969 3.582031-8 8-8h184v56c-.042969 3.746094 2.519531 7.019531 6.167969 7.878906 3.644531.855469 7.398437-.929687 9.03125-4.304687l8.800781-17.6875 8.800781 17.6875c1.632813 3.375 5.386719 5.160156 9.03125 4.304687 3.648438-.859375 6.210938-4.132812 6.167969-7.878906v-56h8c4.417969 0 8 3.582031 8 8zm0 0"/><path d="m224 80h128v16h-128zm0 0"/><path d="m224 48h48v16h-48zm0 0"/><path d="m288 48h48v16h-48zm0 0"/><path d="m304 128h144v16h-144zm0 0"/><path d="m368 160h80v16h-80zm0 0"/><path d="m304 192h144v16h-144zm0 0"/><path d="m304 224h64v16h-64zm0 0"/><path d="m384 224h64v16h-64zm0 0"/><path d="m304 256h144v16h-144zm0 0"/><path d="m304 160h48v16h-48zm0 0"/></svg>