<?xml version="1.0"?>
<svg xmlns="http://www.w3.org/2000/svg" id="Outline" viewBox="0 0 512 512" width="512" height="512"><path d="M376,16H168a40.045,40.045,0,0,0-40,40V80H104a40.045,40.045,0,0,0-40,40V456a40.045,40.045,0,0,0,40,40H360a40.045,40.045,0,0,0,40-40V432h24a40.045,40.045,0,0,0,40-40V104a8,8,0,0,0-2.343-5.657l-80-80A8,8,0,0,0,376,16Zm8,440a24.027,24.027,0,0,1-24,24H104a24.027,24.027,0,0,1-24-24V120a24.027,24.027,0,0,1,24-24H304v40a40.045,40.045,0,0,0,40,40h40ZM320,136V107.313L372.687,160H344A24.027,24.027,0,0,1,320,136ZM448,392a24.027,24.027,0,0,1-24,24H400V168a8,8,0,0,0-2.343-5.657l-80-80A8,8,0,0,0,312,80H144V56a24.027,24.027,0,0,1,24-24H368V72a40.045,40.045,0,0,0,40,40h40ZM384,43.313,436.687,96H408a24.027,24.027,0,0,1-24-24Z"/><path d="M200,208a8,8,0,0,0,0,16H344a8,8,0,0,0,0-16Z"/><path d="M120,272H248a8,8,0,0,0,0-16H120a8,8,0,0,0,0,16Z"/><path d="M344,304H248a8,8,0,0,0,0,16h96a8,8,0,0,0,0-16Z"/><path d="M120,368H264a8,8,0,0,0,0-16H120a8,8,0,0,0,0,16Z"/><path d="M120,224h48a8,8,0,0,0,0-16H120a8,8,0,0,0,0,16Z"/><path d="M344,256H280a8,8,0,0,0,0,16h64a8,8,0,0,0,0-16Z"/><path d="M120,320h96a8,8,0,0,0,0-16H120a8,8,0,0,0,0,16Z"/><path d="M344,352H296a8,8,0,0,0,0,16h48a8,8,0,0,0,0-16Z"/><path d="M168,400H120a8,8,0,0,0,0,16h48a8,8,0,0,0,0-16Z"/><path d="M120,176h96a8,8,0,0,0,0-16H120a8,8,0,0,0,0,16Z"/><path d="M280,400H200a8,8,0,0,0,0,16h80a8,8,0,0,0,0-16Z"/><path d="M344,400H312a8,8,0,0,0,0,16h32a8,8,0,0,0,0-16Z"/></svg>
