<svg id="Capa_1" enable-background="new 0 0 512 512" height="512" viewBox="0 0 512 512" width="512" xmlns="http://www.w3.org/2000/svg"><g><path d="m42 72h428c9.941 0 18 8.059 18 18v302h-464v-302c0-9.941 8.059-18 18-18z" fill="#43dcfe"/><path d="m440 24h-64c-8.837 0-16 7.163-16 16v96c0 8.837 7.163 16 16 16h32v32l40.875-27.25c4.451-2.967 7.125-7.963 7.125-13.313v-103.437c0-8.837-7.163-16-16-16z" fill="#0bafea"/><path d="m216 368v-96c-17.673 0-32 14.327-32 32v70c0 9.941 8.059 18 18 18h14z" fill="#fdc9a6"/><path d="m264 104c35.346 0 64 28.654 64 64v52c0 15.464-12.536 28-28 28h-72c-15.464 0-28-12.536-28-28v-52c0-35.346 28.654-64 64-64z" fill="#fbb540"/><path d="m192 440-16 48h160l-16-48z" fill="#a8a8a8"/><path d="m24 392h464v30c0 9.941-8.059 18-18 18h-428c-9.941 0-18-8.059-18-18z" fill="#cbcbcb"/><path d="m312 392v-40c5.122-10.245 5.965-22.105 2.343-32.971l-2.343-7.029v-40h-96v40l-2.343 7.029c-3.622 10.866-2.779 22.726 2.343 32.971v40z" fill="#ff6268"/><path d="m372.521 215.834c-8.704 0-16.162 6.229-17.712 14.794l-12.529 59.54-30.28-18.168v40l29.773 20c6.629 5.843 16.74 5.205 22.583-1.424 1.788-2.028 3.032-4.477 3.617-7.117l15.566-75.622 19.028-12.447c3.39-2.217 5.433-5.994 5.433-10.045v-9.511z" fill="#fdc9a6"/><path d="m248 320h64v72h-64z" fill="#d32b39"/><path d="m424 64h-32c-4.418 0-8-3.582-8-8s3.582-8 8-8h32c4.418 0 8 3.582 8 8s-3.582 8-8 8z" fill="#43dcfe"/><path d="m400 128h-8c-4.418 0-8-3.582-8-8s3.582-8 8-8h8c4.418 0 8 3.582 8 8s-3.582 8-8 8z" fill="#43dcfe"/><path d="m72 104h80c8.837 0 16 7.163 16 16v64c0 8.837-7.163 16-16 16h-80c-8.837 0-16-7.163-16-16v-64c0-8.837 7.163-16 16-16z" fill="#d32b39"/><path d="m96 128v48l40-24z" fill="#ff6268"/><g fill="#0bafea"><path d="m112 272h-40c-4.418 0-8-3.582-8-8s3.582-8 8-8h40c4.418 0 8 3.582 8 8s-3.582 8-8 8z"/><path d="m152 272h-16c-4.418 0-8-3.582-8-8s3.582-8 8-8h16c4.418 0 8 3.582 8 8s-3.582 8-8 8z"/><path d="m152 240h-80c-4.418 0-8-3.582-8-8s3.582-8 8-8h80c4.418 0 8 3.582 8 8s-3.582 8-8 8z"/></g><path d="m417.079 96h-25.079c-4.418 0-8-3.582-8-8s3.582-8 8-8h25.079c4.418 0 8 3.582 8 8s-3.582 8-8 8z" fill="#43dcfe"/><path d="m96 304h-24c-4.418 0-8-3.582-8-8s3.582-8 8-8h24c4.418 0 8 3.582 8 8s-3.582 8-8 8z" fill="#0bafea"/><path d="m152 304h-32c-4.418 0-8-3.582-8-8s3.582-8 8-8h32c4.418 0 8 3.582 8 8s-3.582 8-8 8z" fill="#0bafea"/><path d="m152 352h-80c-4.418 0-8-3.582-8-8s3.582-8 8-8h80c4.418 0 8 3.582 8 8s-3.582 8-8 8z" fill="#0bafea"/><path d="m104 360c-4.418 0-8-3.582-8-8v-16c0-4.418 3.582-8 8-8s8 3.582 8 8v16c0 4.418-3.582 8-8 8z" fill="#ff6268"/><path d="m208 392h72v-32h-32l-8 8h-32z" fill="#fdc9a6"/><path d="m280 272v-32h-32v32h-8l24 40 24-40z" fill="#fdc9a6"/><path d="m264 248c-22.091 0-40-17.909-40-40v-32l24-24 56 24v32c0 22.091-17.909 40-40 40z" fill="#fdc9a6"/><circle cx="280" cy="192" fill="#683b0d" r="8"/><circle cx="248" cy="192" fill="#683b0d" r="8"/><path d="m264 227.771c-3.294.002-6.578-.367-9.789-1.1-4.306-.988-6.997-5.28-6.008-9.587s5.28-6.997 9.587-6.008c4.088.932 8.334.932 12.422 0 4.308-.988 8.601 1.703 9.589 6.011s-1.703 8.601-6.011 9.589c-3.212.732-6.496 1.099-9.79 1.095z" fill="#683b0d"/><path d="m470 64h-6v-24c-.015-13.248-10.752-23.985-24-24h-64c-13.248.015-23.985 10.752-24 24v24h-310c-14.353.016-25.984 11.647-26 26v332c.016 14.353 11.647 25.984 26 26h139.754l-13.515 38.06c-1.071 4.286 1.535 8.63 5.821 9.701.634.159 1.286.239 1.94.239h160c4.418 0 8-3.582 8-8 0-.654-.08-1.305-.239-1.94l-13.515-38.06h139.754c14.353-.016 25.984-11.647 26-26v-332c-.016-14.353-11.647-25.984-26-26zm-102-24c.005-4.416 3.584-7.995 8-8h64c4.416.005 7.995 3.584 8 8v103.437c.003 2.676-1.335 5.175-3.562 6.657l-28.438 18.958v-17.052c0-4.418-3.582-8-8-8h-32c-4.416-.005-7.995-3.584-8-8zm-181.754 440 12-32h115.508l12 32zm293.754-58c-.006 5.52-4.48 9.994-10 10h-428c-5.52-.006-9.994-4.48-10-10v-22h448zm-272-68.193v14.193c0 4.418 3.582 8 8 8h24c2.122 0 4.157-.843 5.657-2.343l5.656-5.657h20.687v16h-70c-5.52-.006-9.994-4.48-10-10v-70c.013-10.166 6.419-19.224 16-22.624v29.324l-1.933 5.8c-4.115 12.23-3.424 25.568 1.933 37.307zm20.262-113.807h-.262c-11.04-.013-19.987-8.96-20-20v-52c0-30.928 25.072-56 56-56s56 25.072 56 56v52c-.013 11.04-8.96 19.987-20 20h-.262c7.902-8.785 12.27-20.184 12.262-32v-32c0-3.2-1.907-6.092-4.849-7.353l-56-24c-3.007-1.288-6.496-.614-8.808 1.7l-24 24c-1.499 1.499-2.342 3.533-2.343 5.653v32c-.008 11.816 4.36 23.215 12.262 32zm3.738-60.687 17.827-17.826 46.173 19.788v26.725c0 17.673-14.327 32-32 32s-32-14.327-32-32zm48 172.687h-24v-24h48v56h-16v-24c0-4.418-3.582-8-8-8zm-5.052-73.8-10.948 18.251-10.948-18.251c1.866-1.517 2.949-3.795 2.948-6.2v-16.679c5.295.905 10.705.905 16 0v16.679c-.001 2.405 1.082 4.683 2.948 6.2zm-1.618 33.8 19.2-32h11.47v32zm-18.66 0h-6.67c-4.418 0-8 3.582-8 8v36.686l-3.313 3.314h-12.687v-8c0-1.242-.289-2.467-.845-3.578-4.199-8.34-4.886-18.013-1.908-26.863l2.343-7.03c.271-.816.41-1.669.41-2.529v-32h11.47zm225.33 72h-160v-30.193c3.392-7.446 4.936-15.601 4.5-23.771l12.44 8.357c10.161 8.511 25.298 7.173 33.809-2.989 2.473-2.953 4.199-6.458 5.033-10.218.009-.04.018-.078.026-.117l14.9-72.361 16.243-10.626c5.655-3.688 9.06-9.986 9.049-16.737v-9.511c0-4.418-3.582-8-8-8h-35.479c-12.529-.007-23.279 8.929-25.562 21.248l-10.194 48.447-20.649-12.389c-.016-.009-.033-.011-.049-.02-1.23-.733-2.635-1.12-4.067-1.12h-24v-8h12c19.873-.022 35.978-16.127 36-36v-52c0-39.764-32.236-72-72-72s-72 32.236-72 72v52c.022 19.873 16.127 35.978 36 36h12v8h-24c-22.081.025-39.975 17.919-40 40v70c-.004 3.433.676 6.833 2 10h-146v-294c.006-5.52 4.48-9.994 10-10h310v56c.015 13.248 10.752 23.985 24 24h24v24c0 4.418 3.582 8 8 8 1.579 0 3.124-.468 4.438-1.344l40.874-27.25c6.684-4.445 10.696-11.942 10.688-19.969v-63.437h6c5.52.006 9.994 4.48 10 10zm-160-76.264v-21.607l18.164 10.9c3.789 2.273 8.703 1.044 10.976-2.745.458-.763.785-1.597.968-2.468l12.529-59.54c.015-.074.03-.148.044-.222.859-4.76 5.003-8.221 9.84-8.219h27.479v1.511c.002 1.35-.679 2.61-1.811 3.347l-19.028 12.447c-1.783 1.166-3.027 2.995-3.456 5.082l-15.552 75.553c-.984 4.307-5.274 7.001-9.581 6.017-1.298-.297-2.501-.912-3.501-1.792-.322-.285-.667-.544-1.031-.773z"/><circle cx="280" cy="192" r="8"/><circle cx="248" cy="192" r="8"/><path d="m248.2 217.083c-.988 4.306 1.703 8.598 6.009 9.586 6.443 1.469 13.135 1.469 19.578 0 4.306-.988 6.997-5.28 6.008-9.587-.988-4.306-5.28-6.997-9.586-6.008-4.088.932-8.334.932-12.422 0-4.306-.988-8.598 1.702-9.587 6.008z"/><path d="m392 64h32c4.418 0 8-3.582 8-8s-3.582-8-8-8h-32c-4.418 0-8 3.582-8 8s3.582 8 8 8z"/><path d="m392 128h8c4.418 0 8-3.582 8-8s-3.582-8-8-8h-8c-4.418 0-8 3.582-8 8s3.582 8 8 8z"/><path d="m152 96h-80c-13.248.015-23.985 10.752-24 24v64c.015 13.248 10.752 23.985 24 24h80c13.248-.015 23.985-10.752 24-24v-64c-.015-13.248-10.752-23.985-24-24zm8 88c-.005 4.416-3.584 7.995-8 8h-80c-4.416-.005-7.995-3.584-8-8v-64c.005-4.416 3.584-7.995 8-8h80c4.416.005 7.995 3.584 8 8z"/><path d="m140.116 145.14-40-24c-3.789-2.273-8.703-1.045-10.976 2.744-.746 1.243-1.14 2.666-1.14 4.116v48c0 4.418 3.582 8 8 8 1.45 0 2.873-.394 4.116-1.14l40-24c3.789-2.273 5.017-7.187 2.744-10.976-.675-1.126-1.618-2.068-2.744-2.744zm-36.116 16.731v-19.742l16.451 9.871z"/><path d="m72 272h40c4.418 0 8-3.582 8-8s-3.582-8-8-8h-40c-4.418 0-8 3.582-8 8s3.582 8 8 8z"/><path d="m152 256h-16c-4.418 0-8 3.582-8 8s3.582 8 8 8h16c4.418 0 8-3.582 8-8s-3.582-8-8-8z"/><path d="m152 224h-80c-4.418 0-8 3.582-8 8s3.582 8 8 8h80c4.418 0 8-3.582 8-8s-3.582-8-8-8z"/><path d="m392 96h25.079c4.418 0 8-3.582 8-8s-3.582-8-8-8h-25.079c-4.418 0-8 3.582-8 8s3.582 8 8 8z"/><path d="m72 304h24c4.418 0 8-3.582 8-8s-3.582-8-8-8h-24c-4.418 0-8 3.582-8 8s3.582 8 8 8z"/><path d="m152 288h-32c-4.418 0-8 3.582-8 8s3.582 8 8 8h32c4.418 0 8-3.582 8-8s-3.582-8-8-8z"/><path d="m152 336h-40c0-4.418-3.582-8-8-8s-8 3.582-8 8h-24c-4.418 0-8 3.582-8 8s3.582 8 8 8h24c0 4.418 3.582 8 8 8s8-3.582 8-8h40c4.418 0 8-3.582 8-8s-3.582-8-8-8z"/></g></svg>