<svg id="Capa_1" enable-background="new 0 0 510.975 510.975" height="512" viewBox="0 0 510.975 510.975" width="512" xmlns="http://www.w3.org/2000/svg"><g><g><path d="m422.814 103.812-8.258 24.352c-.595 1.756-.289 3.692.82 5.177l15.379 20.608c2.792 3.741.082 9.06-4.586 9l-25.712-.329c-1.854-.024-3.6.866-4.67 2.38l-14.847 20.994c-2.695 3.811-8.591 2.878-9.977-1.58l-7.633-24.555c-.55-1.77-1.936-3.156-3.707-3.707l-24.555-7.633c-4.458-1.386-5.392-7.281-1.58-9.977l20.994-14.847c1.513-1.07 2.403-2.817 2.38-4.67l-.329-25.712c-.06-4.668 5.259-7.378 9-4.586l20.608 15.379c1.486 1.109 3.422 1.415 5.177.82l24.352-8.258c4.423-1.498 8.643 2.723 7.144 7.144z" fill="#fe9901"/></g><g><path d="m426.166 162.948-25.71-.33c-1.85-.02-3.6.87-4.67 2.38l-14.85 21c-2.69 3.81-8.59 2.87-9.97-1.58l-4.64-14.91c.74-.4 1.42-.99 1.97-1.76l15.56-22.01c1.12-1.59 2.95-2.52 4.9-2.5l26.95.35c2.3.03 4.15-1.19 5.15-2.9l9.9 13.26c2.79 3.74.08 9.06-4.59 9z" fill="#fb8801"/></g><g><circle cx="437.117" cy="397.908" fill="#60b7ff" r="22.734"/></g><g><path d="m459.856 397.908c0 12.56-10.18 22.73-22.74 22.73-12.55 0-22.73-10.17-22.73-22.73 0-.7.03-1.4.1-2.08 4.07 3.87 9.57 6.24 15.63 6.24 11.86 0 21.59-9.07 22.64-20.65 4.37 4.13 7.1 9.99 7.1 16.49z" fill="#26a6fe"/></g><g><path d="m33.389 502.461 312.241-132.972-97.818-97.818-97.818-97.818-132.972 312.241c-4.402 10.337 6.031 20.77 16.367 16.367z" fill="#fe7d43"/></g><g><path d="m345.626 369.488-312.24 132.97c-10.33 4.41-20.77-6.03-16.36-16.36l.06-.13c2.38.53 4.99.36 7.59-.75l306.26-130.42z" fill="#fd6930"/></g><g><path d="m173.327 135.604 210.552 210.552c3.021 3.021 3.021 7.918 0 10.939l-19.974 19.974c-3.021 3.021-7.918 3.021-10.939 0l-210.552-210.552c-3.021-3.021-3.021-7.918 0-10.939l19.974-19.974c3.021-3.021 7.918-3.021 10.939 0z" fill="#f3eae6"/></g><g><path d="m383.876 357.098-19.97 19.97c-3.02 3.02-7.92 3.02-10.94 0l-14-14c3.02 3.02 7.92 3.02 10.94 0l19.97-19.97c3.02-3.02 3.02-7.92 0-10.94l14 14c3.02 3.02 3.02 7.92 0 10.94z" fill="#e1d3ce"/></g><g><g><path d="m55.682 395.319 92.924 58.071-52.502 22.36-58.981-36.864z" fill="#7acaa6"/></g><g><path d="m91.388 311.466 158.24 98.905-52.502 22.36-124.292-77.691z" fill="#7acaa6"/></g><g><path d="m127.099 227.621 204.444 127.775 14.093 14.092-47.468 20.217-189.629-118.504z" fill="#7acaa6"/></g><g><g><path d="m148.606 453.388-52.5 22.36-19.94-12.46 52.51-22.36z" fill="#57be92"/></g><g><path d="m249.626 410.368-52.5 22.36-19.93-12.46 52.5-22.36z" fill="#57be92"/></g><g><path d="m345.626 369.488-47.46 20.22-.01-.01-19.93-12.45 52.5-22.36.79.49.03.02z" fill="#57be92"/></g></g></g><g><g><path d="m142.086 9.359c-5.255 10.788-17.482 31.631-36.682 39.931-2.702 1.168-2.702 4.941 0 6.109 19.2 8.3 31.427 29.143 36.682 39.931 1.207 2.479 4.734 2.479 5.941 0 5.255-10.788 17.483-31.631 36.682-39.931 2.702-1.168 2.702-4.941 0-6.109-19.2-8.3-31.427-29.143-36.682-39.931-1.206-2.479-4.733-2.479-5.941 0z" fill="#fe9901"/></g><g><path d="m184.709 55.4c-19.198 8.296-31.423 29.142-36.684 39.933-1.201 2.477-4.73 2.477-5.94 0-1.89-3.873-4.674-9.05-8.361-14.469 5.772-11.452 18.137-31.507 37.093-39.7.196-.084.382-.186.549-.307 3.985 3.38 8.435 6.313 13.342 8.435 2.701 1.164 2.701 4.935.001 6.108z" fill="#fb8801"/></g></g><g><g><path d="m346.214 419.624c-4.236 8.695-14.091 25.495-29.566 32.185-2.178.942-2.178 3.982 0 4.924 15.475 6.69 25.33 23.489 29.566 32.185.973 1.998 3.816 1.998 4.789 0 4.236-8.695 14.091-25.495 29.566-32.185 2.178-.942 2.178-3.982 0-4.924-15.475-6.69-25.33-23.489-29.566-32.185-.974-1.998-3.816-1.998-4.789 0z" fill="#fe9901"/></g><g><path d="m380.567 456.734c-15.474 6.686-25.327 23.488-29.567 32.186-.968 1.996-3.812 1.996-4.788 0-1.523-3.122-3.767-7.294-6.739-11.662 4.653-9.23 14.618-25.395 29.897-31.999.158-.068.308-.15.443-.248 3.212 2.724 6.799 5.088 10.754 6.799 2.177.939 2.177 3.978 0 4.924z" fill="#fb8801"/></g></g><g><circle cx="346.139" cy="35.551" fill="#60b7ff" r="22.734"/></g><g><path d="m368.876 35.548c0 12.56-10.18 22.74-22.74 22.74-12.55 0-22.73-10.18-22.73-22.74 0-.24 0-.48.02-.72 3.7 2.6 8.19 4.12 13.05 4.12 12.31 0 22.33-9.78 22.71-22 5.86 4.1 9.69 10.9 9.69 18.6z" fill="#26a6fe"/></g><g><circle cx="231.49" cy="97.188" fill="#60b7ff" r="22.734"/></g><g><path d="m254.226 97.188c0 12.56-10.18 22.73-22.74 22.73-12.55 0-22.73-10.17-22.73-22.73 0-.22 0-.44.02-.66 3.58 2.38 7.88 3.75 12.5 3.75 12.34 0 22.38-9.81 22.72-22.07 6.16 4.06 10.23 11.04 10.23 18.98z" fill="#26a6fe"/></g><g><path d="m383.545 444.924c-13.577-5.868-22.565-21.944-25.799-28.584-1.717-3.524-5.218-5.715-9.137-5.715s-7.42 2.19-9.137 5.715c-3.234 6.64-12.222 22.715-25.799 28.584-3.741 1.617-6.158 5.286-6.158 9.347s2.417 7.729 6.158 9.347c13.578 5.869 22.565 21.944 25.799 28.584 1.717 3.524 5.218 5.715 9.137 5.715s7.42-2.19 9.137-5.715c3.234-6.64 12.223-22.716 25.799-28.584 3.741-1.617 6.158-5.286 6.158-9.347s-2.418-7.73-6.158-9.347zm-34.937 32.696c-4.685-7.792-11.632-16.964-21-23.35 9.369-6.386 16.316-15.558 21-23.35 4.685 7.791 11.634 16.964 21 23.35-9.366 6.386-16.315 15.559-21 23.35z"/><path d="m437.117 367.674c-16.671 0-30.234 13.563-30.234 30.234s13.563 30.233 30.234 30.233 30.234-13.563 30.234-30.233-13.563-30.234-30.234-30.234zm0 45.468c-8.4 0-15.234-6.834-15.234-15.233 0-8.4 6.834-15.234 15.234-15.234s15.234 6.834 15.234 15.234c0 8.399-6.834 15.233-15.234 15.233z"/><path d="m357.839 309.51c-2.929-2.928-7.678-2.928-10.606 0-2.929 2.93-2.929 7.678 0 10.607l31.343 31.343c.092.092.091.241 0 .332l-19.974 19.974c-.092.091-.241.093-.333 0l-210.552-210.553c-.024-.024-.068-.068-.068-.165 0-.098.044-.142.069-.167l19.974-19.974c.092-.092.241-.092.333 0l154.646 154.646c2.929 2.928 7.678 2.928 10.606 0 2.929-2.93 2.929-7.678 0-10.607l-154.647-154.646c-5.94-5.939-15.605-5.939-21.545 0l-19.974 19.975c-2.878 2.877-4.463 6.703-4.463 10.773 0 4.069 1.585 7.896 4.462 10.772l3.925 3.925-130.913 307.41c-3.211 7.54-1.542 16.157 4.253 21.952 3.838 3.839 8.914 5.867 14.095 5.867 2.642 0 5.312-.528 7.858-1.612l307.41-130.914 3.925 3.925c2.97 2.97 6.871 4.455 10.773 4.455 3.901-.001 7.803-1.485 10.772-4.455l19.975-19.975c5.939-5.941 5.938-15.606-.001-21.546zm-205.368-122.33 126.535 126.535-142.496-89.058zm-122.02 308.382c-2.792 1.191-4.755-.346-5.469-1.061-.715-.714-2.248-2.678-1.06-5.469l16.666-39.135 39.346 24.591zm66.312-28.245-50.225-31.39 8.692-20.411 3.915-9.19 73.287 45.801zm52.506-22.356-84.176-52.605 11.203-26.307 104.659 65.418zm101.021-43.021-103.21-64.509c-3.512-2.194-8.14-1.127-10.335 2.385-2.195 3.513-1.128 8.14 2.385 10.336l94.325 58.956-35.669 15.19-115.539-72.219 5.43-12.752 7.176-16.85 14.75 9.219c3.514 2.195 8.14 1.126 10.335-2.386s1.128-8.14-2.385-10.335l-16.751-10.469 11.199-26.298 169.99 106.232zm48.534-20.669-180.871-113.033 12.61-29.609 195.612 122.256 6.129 6.129z"/><path d="m500.587 285.184c-9.707-10.99-22.556-17.354-36.181-17.917-6.43-.271-12.791.764-18.832 2.986-13.007-7.744-29.92-8.427-48.713-1.762-3.904 1.384-5.947 5.671-4.563 9.574 1.384 3.905 5.67 5.95 9.575 4.563 6.733-2.387 17.368-5.031 27.45-2.795-.889.756-1.762 1.545-2.617 2.365-10.303 9.883-12.563 26.215-5.145 37.182 4.204 6.215 11.797 10.213 19.817 10.434.24.007.479.01.717.01 7.169 0 13.529-2.983 17.533-8.252 2.336-3.076 3.941-6.919 4.77-11.42 1.765-9.586-.426-19.65-5.78-27.702 1.713-.2 3.439-.265 5.169-.195 9.504.394 18.581 4.96 25.558 12.859 2.742 3.105 7.481 3.398 10.586.656s3.398-7.482.656-10.586zm-50.941 22.252c-.4 2.171-1.06 3.874-1.961 5.061-1.669 2.197-4.681 2.354-5.893 2.323-3.223-.089-6.287-1.598-7.806-3.844-3.33-4.923-1.909-13.145 3.104-17.953 2.099-2.013 4.334-3.762 6.672-5.231 4.854 5.1 7.157 12.725 5.884 19.644z"/><path d="m399.621 212.515c-23.534 3.986-44.772 12.69-58.269 23.881-3.188 2.644-3.63 7.372-.986 10.561 1.483 1.789 3.622 2.713 5.777 2.713 1.687 0 3.383-.565 4.783-1.727 24.094-19.976 76.771-28.945 106.344-18.105 3.89 1.426 8.197-.572 9.623-4.461 1.425-3.89-.572-8.197-4.461-9.623-16.458-6.033-39.35-7.214-62.811-3.239z"/><path d="m102.428 62.283c17.398 7.521 28.815 27.912 32.916 36.331 1.825 3.746 5.547 6.073 9.713 6.073s7.888-2.327 9.713-6.074c4.101-8.418 15.517-28.81 32.915-36.33 3.98-1.72 6.552-5.621 6.552-9.938 0-4.318-2.572-8.22-6.551-9.939-17.398-7.521-28.814-27.913-32.916-36.332-1.825-3.747-5.547-6.074-9.713-6.074s-7.888 2.327-9.713 6.073v.001c-4.101 8.418-15.518 28.811-32.915 36.331-3.98 1.72-6.552 5.621-6.552 9.939.001 4.318 2.572 8.219 6.551 9.939zm42.629-42.484c6.026 10.605 15.728 24.109 29.365 32.545-13.637 8.437-23.339 21.94-29.365 32.545-6.026-10.605-15.728-24.108-29.365-32.544 13.637-8.437 23.339-21.941 29.365-32.546z"/><path d="m269.644 173.263c1.4 1.161 3.096 1.727 4.783 1.727 2.155 0 4.294-.924 5.777-2.713 11.19-13.496 19.895-34.734 23.881-58.269 3.974-23.46 2.794-46.354-3.238-62.811-1.426-3.889-5.735-5.882-9.623-4.461-3.889 1.426-5.886 5.733-4.461 9.623 10.839 29.575 1.871 82.249-18.106 106.343-2.643 3.189-2.201 7.917.987 10.561z"/><path d="m441.408 82.938c10.184 8.458 26.659 7.814 37.508-1.468.9-.771 1.77-1.562 2.61-2.372 1.234 10.251-2.442 20.576-5.479 27.042-1.761 3.749-.149 8.216 3.6 9.977 1.031.484 2.116.714 3.184.714 2.816 0 5.516-1.595 6.793-4.313 8.478-18.047 9.459-34.943 3.032-48.649 2.806-5.794 4.455-12.025 4.822-18.448.777-13.614-4.292-27.025-14.275-37.766-2.82-3.033-7.566-3.206-10.6-.387-3.034 2.82-3.207 7.565-.387 10.6 7.175 7.719 10.829 17.2 10.286 26.697-.099 1.728-.334 3.439-.702 5.125-7.486-6.121-17.287-9.296-27-8.474-4.564.382-8.546 1.603-11.835 3.625-5.823 3.581-9.466 9.905-9.994 17.351-.568 8.003 2.665 15.953 8.437 20.746zm6.526-19.684c.086-1.213.54-4.19 2.891-5.637 7.521-4.626 19.027.332 24.199 6.331-1.692 2.182-3.652 4.235-5.861 6.126-5.278 4.515-13.6 5.123-18.171 1.325-2.086-1.732-3.287-4.929-3.058-8.145z"/><path d="m356.204 81.541c-4.486 2.286-7.233 6.834-7.169 11.868l.316 24.73-20.193 14.28c-4.111 2.907-6.176 7.804-5.388 12.777.789 4.974 4.266 8.991 9.073 10.484l23.617 7.341s7.31 23.516 7.341 23.618c3.178 10.225 17.113 12.381 23.262 3.684l14.28-20.192c7.652.098 15.168-.204 22.809.212 5.816.316 10.858-1.313 13.789-7.064 2.286-4.486 1.836-9.78-1.176-13.816l-14.792-19.821 7.943-23.422c1.617-4.769.409-9.942-3.151-13.503-3.561-3.56-8.734-4.769-13.504-3.15l-23.421 7.942-19.821-14.791c-4.035-3.011-9.329-3.463-13.815-1.177zm37.525 30.488 20.768-7.042-7.043 20.768c-1.388 4.094-.673 8.606 1.913 12.071l13.116 17.575-21.929-.28c-4.311-.08-8.393 2.019-10.889 5.549l-12.662 17.903-6.509-20.939c-1.283-4.128-4.513-7.358-8.643-8.644l-20.94-6.509 17.905-12.662c3.53-2.496 5.604-6.567 5.548-10.89l-.28-21.927 17.574 13.113c3.463 2.588 7.976 3.304 12.071 1.914z"/><path d="m346.139 65.785c16.671 0 30.234-13.563 30.234-30.234s-13.562-30.234-30.234-30.234c-16.671 0-30.234 13.563-30.234 30.233s13.563 30.235 30.234 30.235zm0-45.468c8.4 0 15.234 6.834 15.234 15.233 0 8.4-6.834 15.234-15.234 15.234s-15.234-6.834-15.234-15.234c0-8.399 6.834-15.233 15.234-15.233z"/><path d="m231.49 127.422c16.671 0 30.234-13.563 30.234-30.233s-13.563-30.234-30.234-30.234-30.234 13.563-30.234 30.234 13.563 30.233 30.234 30.233zm0-45.468c8.4 0 15.234 6.834 15.234 15.234 0 8.399-6.834 15.233-15.234 15.233s-15.234-6.834-15.234-15.233c0-8.4 6.834-15.234 15.234-15.234z"/></g></g></svg>