<?xml version="1.0" encoding="utf-8"?>
<!-- Generator: Adobe Illustrator 23.1.0, SVG Export Plug-In . SVG Version: 6.00 Build 0)  -->
<svg version="1.1" id="_x33_0" xmlns="http://www.w3.org/2000/svg" xmlns:xlink="http://www.w3.org/1999/xlink" x="0px" y="0px"
	 viewBox="0 0 512 512" style="enable-background:new 0 0 512 512;" xml:space="preserve">
<style type="text/css">
	.st0{fill:#AAB2BD;}
	.st1{fill:#FF826E;}
	.st2{fill:#E6E9ED;}
	.st3{fill:#B4DD7F;}
	.st4{fill:#69D6F4;stroke:#000000;stroke-width:0.2;stroke-miterlimit:10;}
	.st5{fill:#FCD770;stroke:#000000;stroke-width:0.2;stroke-miterlimit:10;}
	.st6{fill:#F0D0B4;stroke:#000000;stroke-width:0.2;stroke-miterlimit:10;}
	.st7{fill:#D42428;}
	.st8{fill:#CC202D;}
	.st9{fill:#FFFFFF;}
</style>
<g>
	<g>
		<path class="st0" d="M391.8,123.8v48h-36v-48c0-19.9-16.1-36-36-36H151.9c-19.9,0-36,16.1-36,36v48h-36v-48c0-39.8,32.2-72,72-72
			h167.9C359.6,51.8,391.8,84,391.8,123.8z"/>
	</g>
	<g>
		<path class="st1" d="M115.9,171.7v131.9h-36c-13.3,0-24-10.7-24-24v-84c0-13.3,10.7-24,24-24H115.9z"/>
	</g>
	<g>
		<path class="st1" d="M415.7,195.7v84c0,13.3-10.7,24-24,24h-36V171.7h36C405,171.7,415.7,182.5,415.7,195.7z"/>
	</g>
	<g>
		<path class="st0" d="M139.9,195.7v107.9h-24V171.7h24V195.7z"/>
		<path class="st0" d="M142.9,306.7h-30V168.7h30V306.7z M118.9,300.7h18V174.7h-18V300.7z"/>
	</g>
	<g>
		<path class="st0" d="M355.8,171.7v131.9h-18h-6V195.7v-24H355.8z"/>
		<path class="st0" d="M358.8,306.7h-30V168.7h30V306.7z M334.8,300.7h18V174.7h-18V300.7z"/>
	</g>
	<g>
		<path class="st2" d="M303.8,399.6h-152c-6.6,0-12-5.4-12-12v-84V195.7h191.9v107.9h6c-11.1,0-21.4,3.4-30,9.1v-93.1h-72h-72v107.9
			h24h96h9.1c-5.8,8.6-9.1,18.9-9.1,30C283.8,374.6,291.6,389.7,303.8,399.6L303.8,399.6z"/>
	</g>
	<g>
		<path class="st3" d="M139.9,171.7v-12c0-6.6,5.4-12,12-12h167.9c6.6,0,12,5.4,12,12v12v24H139.9V171.7z"/>
	</g>
	<g>
		<g>
			<path class="st4" d="M139.9,219.7h96c-13.3,0-24,10.7-24,24c0,13.3,10.7,24,24,24c-26.5,0-48,21.5-48,48v12h-48V219.7z"/>
		</g>
		<g>
			<path class="st4" d="M331.8,312.8c-5.9,3.9-35,9-38.9,14.9h-9.1v-12c0-13.3-5.4-25.2-14-33.9c-8.7-8.6-20.7-14-33.9-14
				c13.3,0,24-10.7,24-24c0-13.3-10.7-24-24-24h96V312.8z"/>
		</g>
	</g>
	<g>
		<path class="st5" d="M283.8,315.7v12h-96v-12c0-26.5,21.5-48,48-48c13.3,0,25.2,5.4,33.9,14C278.4,290.4,283.8,302.4,283.8,315.7z
			"/>
	</g>
	<g>
		<circle class="st6" cx="235.8" cy="243.7" r="24"/>
	</g>
	<g>
		<circle class="st7" cx="175.9" cy="363.6" r="12"/>
	</g>
	<g>
		<circle class="st7" cx="367.8" cy="375.6" r="88.1"/>
		<path class="st8" d="M430.1,313.3c34.4,34.4,34.4,90.2,0,124.6c-34.4,34.4-90.2,34.4-124.6,0L430.1,313.3z"/>
		<path class="st9" d="M413.9,358.6c0-7.4-6-13.4-13.4-13.4h-62.7c-7.4,0-13.4,6-13.4,13.4v35.9c0,7.4,6,13.4,13.4,13.4h62.7
			c7.4,0,13.4-6,13.4-13.4L413.9,358.6L413.9,358.6z M360.3,391.7V358l25.5,16.8L360.3,391.7z"/>
	</g>
</g>
</svg>
