<svg height="682pt" viewBox="-21 -86 682.66669 682" width="682pt" xmlns="http://www.w3.org/2000/svg"><path d="m627.5 199.402344c-6.90625 0-12.5 5.601562-12.5 12.5v44.546875c0 25.5625-20.800781 46.363281-46.363281 46.363281h-71.25c-3.316407 0-6.492188 1.3125-8.839844 3.65625l-86.378906 86.382812v-77.539062c0-6.90625-5.597657-12.5-12.5-12.5h-178.96875c-25.5625 0-46.363281-20.796875-46.363281-46.363281v-189.089844c0-25.5625 20.800781-46.359375 46.363281-46.359375h357.9375c25.5625 0 46.363281 20.796875 46.363281 46.359375v44.542969c0 6.90625 5.59375 12.5 12.5 12.5 6.898438 0 12.5-5.59375 12.5-12.5v-44.542969c0-39.347656-32.011719-71.359375-71.363281-71.359375h-357.9375c-39.351563 0-71.363281 32.011719-71.363281 71.359375v160.589844h-90.980469c-26.660157 0-48.355469 21.6875-48.355469 48.355469v115.1875c0 26.667968 21.695312 48.355468 48.355469 48.355468h38.230469l61.953124 61.957032c2.394532 2.394531 5.59375 3.664062 8.84375 3.664062 1.609376 0 3.238282-.3125 4.78125-.953125 4.671876-1.933594 7.71875-6.488281 7.71875-11.546875v-53.121094h96.523438c26.664062 0 48.355469-21.6875 48.355469-48.355468v-63.679688h62.40625v95.214844c0 5.058594 3.046875 9.613281 7.71875 11.546875 1.542969.640625 3.167969.953125 4.78125.953125 3.253906 0 6.449219-1.269532 8.839843-3.664063l104.054688-104.050781h66.074219c39.351562 0 71.363281-32.011719 71.363281-71.363281v-44.546875c0-6.898438-5.601562-12.5-12.5-12.5zm-337.734375 192.089844c0 12.882812-10.476563 23.355468-23.359375 23.355468h-109.023438c-6.90625 0-12.5 5.601563-12.5 12.5v35.445313l-44.28125-44.28125c-2.34375-2.34375-5.523437-3.664063-8.839843-3.664063h-43.40625c-12.878907 0-23.355469-10.472656-23.355469-23.355468v-115.1875c0-12.878907 10.476562-23.355469 23.355469-23.355469h90.980469v3.5c0 39.351562 32.011718 71.363281 71.363281 71.363281h79.066406zm0 0"/><path d="m511.542969 77.914062h-243.75c-6.902344 0-12.5 5.597657-12.5 12.5 0 6.90625 5.597656 12.5 12.5 12.5h243.75c6.902343 0 12.5-5.59375 12.5-12.5 0-6.902343-5.597657-12.5-12.5-12.5zm0 0"/><path d="m524.042969 157.917969c0-6.902344-5.597657-12.5-12.5-12.5h-243.75c-6.902344 0-12.5 5.597656-12.5 12.5 0 6.90625 5.597656 12.5 12.5 12.5h243.75c6.902343 0 12.5-5.59375 12.5-12.5zm0 0"/><path d="m267.792969 212.917969c-6.902344 0-12.5 5.597656-12.5 12.5 0 6.90625 5.597656 12.5 12.5 12.5h140.625c6.902343 0 12.5-5.59375 12.5-12.5 0-6.902344-5.597657-12.5-12.5-12.5zm0 0"/><path d="m627.5 149.402344c-6.882812 0-12.5 5.617187-12.5 12.5 0 6.886718 5.617188 12.5 12.5 12.5s12.5-5.613282 12.5-12.5c0-6.882813-5.617188-12.5-12.5-12.5zm0 0"/></svg>