<?xml version="1.0" encoding="iso-8859-1"?>
<!-- Generator: Adobe Illustrator 19.0.0, SVG Export Plug-In . SVG Version: 6.00 Build 0)  -->
<svg version="1.1" id="Capa_1" xmlns="http://www.w3.org/2000/svg" xmlns:xlink="http://www.w3.org/1999/xlink" x="0px" y="0px"
	 viewBox="0 0 512.001 512.001" style="enable-background:new 0 0 512.001 512.001;" xml:space="preserve">
<g>
	<g>
		<path d="M504.396,373.095h-26.81V101.172c0-16.955-13.745-30.7-30.7-30.7H62.714c-16.955,0-30.7,13.745-30.7,30.7v271.923H7.604
			c-4.199,0-7.604,3.405-7.604,7.604v16.793c0,24.32,19.716,44.037,44.037,44.037H330.52c4.199,0,7.604-3.405,7.604-7.604
			s-3.405-7.604-7.604-7.604H44.037c-15.922-0.001-28.829-12.907-28.829-28.829v-9.189h24.411h154.803
			c0.27,14.719,12.319,26.613,27.103,26.613h68.95c14.783,0,26.833-11.894,27.103-26.613h152.406h26.81v9.189
			c0,15.922-12.907,28.829-28.829,28.829H366.007c-4.199,0-7.604,3.405-7.604,7.604s3.405,7.604,7.604,7.604h101.957
			c24.32,0,44.037-19.716,44.037-44.037v-16.793C512,376.499,508.595,373.095,504.396,373.095z M290.474,399.707h-68.95
			c-6.397,0-11.633-5.071-11.896-11.405h92.742C302.107,394.635,296.872,399.707,290.474,399.707z M462.378,373.095H47.223V101.172
			c0-8.543,6.949-15.492,15.492-15.492h384.171c8.543,0,15.492,6.949,15.492,15.492V373.095z"/>
	</g>
</g>
<g>
	<g>
		<path d="M441.594,98.861H147.015c-4.199,0-7.604,3.405-7.604,7.604c0,4.199,3.405,7.604,7.604,7.604H433.99v230.638H75.611
			V114.068h35.917c4.199,0,7.604-3.405,7.604-7.604c0-4.199-3.405-7.604-7.604-7.604H68.007c-4.199,0-7.604,3.405-7.604,7.604
			v245.846c0,4.199,3.405,7.604,7.604,7.604h373.587c4.199,0,7.604-3.405,7.604-7.604V106.465
			C449.198,102.265,445.794,98.861,441.594,98.861z"/>
	</g>
</g>
<g>
</g>
<g>
</g>
<g>
</g>
<g>
</g>
<g>
</g>
<g>
</g>
<g>
</g>
<g>
</g>
<g>
</g>
<g>
</g>
<g>
</g>
<g>
</g>
<g>
</g>
<g>
</g>
<g>
</g>
</svg>
