<svg id="Capa_1" enable-background="new 0 0 480.011 480.011" height="512" viewBox="0 0 480.011 480.011" width="512" xmlns="http://www.w3.org/2000/svg"><g><path d="m440.03 216.004c-14.362-.012-26.964-9.572-30.844-23.4-10.301-36.573-32.069-68.873-62.1-92.15-63.11-48.595-151.033-48.595-214.143 0-12.083 9.329-22.896 20.195-32.164 32.325l66.2-19.471c16.955-4.987 34.742 4.716 39.729 21.671s-4.716 34.742-21.671 39.729l-135.994 40c-16.955 4.986-34.742-4.717-39.728-21.672-.694-2.362-1.114-4.795-1.251-7.253l-8-144c-1.104-17.639 12.301-32.832 29.939-33.935s32.832 12.301 33.935 29.94c.009.149.018.298.025.448l2.045 36.805c84.413-89.396 222.822-100.304 320.196-25.237 40.928 31.727 70.593 75.753 84.629 125.6 4.75 17.023-5.2 34.673-22.223 39.423-2.793.779-5.678 1.175-8.577 1.177zm-408.017-192c-.3 0-.593.009-.893.025-8.816.503-15.562 8.046-15.082 16.863l8 144c.491 8.823 8.041 15.577 16.864 15.087 1.228-.068 2.443-.278 3.623-.625l136-40c8.478-2.493 13.329-11.387 10.835-19.865s-11.387-13.329-19.865-10.835l-87.453 25.722c-4.239 1.247-8.686-1.179-9.932-5.418-.624-2.123-.342-4.409.781-6.316 12.433-21.203 28.818-39.824 48.268-54.853l4.89 6.331-4.89-6.331c68.87-53.045 164.83-53.045 233.7 0 32.758 25.389 56.502 60.622 67.738 100.515 2.375 8.512 11.2 13.487 19.712 11.112s13.487-11.2 11.112-19.712c-13.103-46.531-40.794-87.627-79-117.243-80.393-61.945-192.431-61.945-272.824 0-14.208 10.994-27.043 23.658-38.227 37.717-2.753 3.456-7.786 4.026-11.242 1.273-1.784-1.421-2.877-3.536-3.003-5.814l-3.14-56.523c-.484-8.471-7.488-15.096-15.972-15.11z"/><path d="m240.013 480.004c-52.923.184-104.385-17.344-146.193-49.793-40.928-31.726-70.592-75.751-84.627-125.597-4.689-17.04 5.323-34.654 22.363-39.343 16.957-4.666 34.501 5.226 39.284 22.15 10.301 36.571 32.069 68.869 62.1 92.143 76.608 59.134 186.648 44.969 245.782-31.639.176-.228.351-.456.526-.685l-66.2 19.471c-16.882 5.23-34.806-4.216-40.036-21.098s4.216-34.806 21.098-40.036c.292-.091.586-.177.881-.259l135.993-40c16.955-4.986 34.742 4.716 39.728 21.672.694 2.361 1.114 4.794 1.251 7.25l8 143.989c.959 17.637-12.54 32.723-30.175 33.722-.6.034-1.2.051-1.8.051-16.975-.012-30.986-13.276-31.928-30.225l-2.045-36.8c-45.149 47.968-108.129 75.124-174.002 75.027zm-200.008-199.985c-8.837.006-15.995 7.175-15.989 16.011.001 1.45.199 2.892.589 4.289 13.103 46.528 40.794 87.622 79 117.235 80.395 61.94 192.43 61.94 272.825 0 14.208-10.994 27.042-23.656 38.227-37.714 2.753-3.456 7.786-4.026 11.242-1.273 1.784 1.421 2.876 3.536 3.003 5.813l3.14 56.518c.547 8.82 8.141 15.526 16.96 14.978 8.739-.542 15.419-8.009 14.99-16.754l-8-143.988c-.491-8.823-8.042-15.577-16.865-15.086-1.228.068-2.444.278-3.623.625l-135.995 40c-8.483 2.476-13.352 11.359-10.876 19.842s11.359 13.352 19.842 10.876c.021-.006.041-.012.062-.018l87.449-25.719c4.239-1.247 8.686 1.178 9.933 5.416.625 2.123.342 4.411-.781 6.318-12.433 21.202-28.818 39.821-48.268 54.848-68.871 53.043-164.829 53.043-233.7 0-32.755-25.385-56.498-60.613-67.735-100.5-1.936-6.923-8.242-11.712-15.43-11.717z"/></g></svg>